<mxfile host="app.diagrams.net" modified="2023-04-05T14:44:04.853Z" agent="Mozilla/5.0 (Windows NT 10.0; Win64; x64) AppleWebKit/537.36 (KHTML, like Gecko) Chrome/111.0.0.0 Safari/537.36" etag="Baf1gFUVOc4GQjwG6Emh" version="21.1.4" type="github">
  <diagram id="R2lEEEUBdFMjLlhIrx00" name="Page-1">
    <mxGraphModel dx="1955" dy="612" grid="1" gridSize="10" guides="1" tooltips="1" connect="1" arrows="1" fold="1" page="1" pageScale="1" pageWidth="850" pageHeight="1100" math="0" shadow="0" extFonts="Permanent Marker^https://fonts.googleapis.com/css?family=Permanent+Marker">
      <root>
        <mxCell id="0" />
        <mxCell id="1" parent="0" />
        <mxCell id="1GqtW3D0vnaD6hVMnLZm-1" value="SCUOLA" style="rounded=0;whiteSpace=wrap;html=1;" parent="1" vertex="1">
          <mxGeometry x="640" y="400" width="160" height="80" as="geometry" />
        </mxCell>
        <mxCell id="1GqtW3D0vnaD6hVMnLZm-3" value="PERSONA" style="rounded=0;whiteSpace=wrap;html=1;" parent="1" vertex="1">
          <mxGeometry x="160" y="400" width="160" height="80" as="geometry" />
        </mxCell>
        <mxCell id="1GqtW3D0vnaD6hVMnLZm-5" value="SI RIFERISCE" style="rhombus;whiteSpace=wrap;html=1;" parent="1" vertex="1">
          <mxGeometry x="440" y="400" width="80" height="80" as="geometry" />
        </mxCell>
        <mxCell id="1GqtW3D0vnaD6hVMnLZm-8" value="CLASSE" style="rounded=0;whiteSpace=wrap;html=1;" parent="1" vertex="1">
          <mxGeometry x="640" y="80" width="160" height="80" as="geometry" />
        </mxCell>
        <mxCell id="1GqtW3D0vnaD6hVMnLZm-9" value="HA" style="rhombus;whiteSpace=wrap;html=1;" parent="1" vertex="1">
          <mxGeometry x="680" y="240" width="80" height="80" as="geometry" />
        </mxCell>
        <mxCell id="1GqtW3D0vnaD6hVMnLZm-11" value="" style="endArrow=none;html=1;rounded=0;exitX=0.5;exitY=0;exitDx=0;exitDy=0;entryX=0.5;entryY=1;entryDx=0;entryDy=0;" parent="1" source="1GqtW3D0vnaD6hVMnLZm-9" target="1GqtW3D0vnaD6hVMnLZm-8" edge="1">
          <mxGeometry width="50" height="50" relative="1" as="geometry">
            <mxPoint x="770" y="200" as="sourcePoint" />
            <mxPoint x="730" y="170" as="targetPoint" />
          </mxGeometry>
        </mxCell>
        <mxCell id="1GqtW3D0vnaD6hVMnLZm-12" value="ORTO" style="rounded=0;whiteSpace=wrap;html=1;" parent="1" vertex="1">
          <mxGeometry x="640" y="720" width="160" height="80" as="geometry" />
        </mxCell>
        <mxCell id="1GqtW3D0vnaD6hVMnLZm-15" value="" style="endArrow=none;html=1;rounded=0;exitX=0.5;exitY=0;exitDx=0;exitDy=0;entryX=0.5;entryY=1;entryDx=0;entryDy=0;" parent="1" edge="1">
          <mxGeometry width="50" height="50" relative="1" as="geometry">
            <mxPoint x="719.5" y="400" as="sourcePoint" />
            <mxPoint x="719.5" y="320" as="targetPoint" />
          </mxGeometry>
        </mxCell>
        <mxCell id="1GqtW3D0vnaD6hVMnLZm-16" value="" style="endArrow=none;html=1;rounded=0;exitX=0;exitY=0.5;exitDx=0;exitDy=0;entryX=0.5;entryY=1;entryDx=0;entryDy=0;" parent="1" source="1GqtW3D0vnaD6hVMnLZm-1" edge="1">
          <mxGeometry width="50" height="50" relative="1" as="geometry">
            <mxPoint x="520" y="520" as="sourcePoint" />
            <mxPoint x="520" y="440" as="targetPoint" />
          </mxGeometry>
        </mxCell>
        <mxCell id="1GqtW3D0vnaD6hVMnLZm-17" value="" style="endArrow=none;html=1;rounded=0;exitX=0;exitY=0.5;exitDx=0;exitDy=0;entryX=1;entryY=0.5;entryDx=0;entryDy=0;" parent="1" source="1GqtW3D0vnaD6hVMnLZm-5" target="1GqtW3D0vnaD6hVMnLZm-3" edge="1">
          <mxGeometry width="50" height="50" relative="1" as="geometry">
            <mxPoint x="330" y="510" as="sourcePoint" />
            <mxPoint x="330" y="430" as="targetPoint" />
          </mxGeometry>
        </mxCell>
        <mxCell id="1GqtW3D0vnaD6hVMnLZm-18" value="HA" style="rhombus;whiteSpace=wrap;html=1;" parent="1" vertex="1">
          <mxGeometry x="680" y="560" width="80" height="80" as="geometry" />
        </mxCell>
        <mxCell id="1GqtW3D0vnaD6hVMnLZm-19" value="" style="endArrow=none;html=1;rounded=0;exitX=0.5;exitY=0;exitDx=0;exitDy=0;entryX=0.5;entryY=1;entryDx=0;entryDy=0;" parent="1" edge="1">
          <mxGeometry width="50" height="50" relative="1" as="geometry">
            <mxPoint x="719.5" y="560" as="sourcePoint" />
            <mxPoint x="719.5" y="480" as="targetPoint" />
          </mxGeometry>
        </mxCell>
        <mxCell id="1GqtW3D0vnaD6hVMnLZm-20" value="" style="endArrow=none;html=1;rounded=0;exitX=0.5;exitY=0;exitDx=0;exitDy=0;entryX=0.5;entryY=1;entryDx=0;entryDy=0;" parent="1" edge="1">
          <mxGeometry width="50" height="50" relative="1" as="geometry">
            <mxPoint x="719.5" y="720" as="sourcePoint" />
            <mxPoint x="719.5" y="640" as="targetPoint" />
          </mxGeometry>
        </mxCell>
        <mxCell id="1GqtW3D0vnaD6hVMnLZm-21" value="PIANTA" style="rounded=0;whiteSpace=wrap;html=1;" parent="1" vertex="1">
          <mxGeometry x="160" y="720" width="160" height="80" as="geometry" />
        </mxCell>
        <mxCell id="1GqtW3D0vnaD6hVMnLZm-22" value="FA PARTE" style="rhombus;whiteSpace=wrap;html=1;" parent="1" vertex="1">
          <mxGeometry x="440" y="720" width="80" height="80" as="geometry" />
        </mxCell>
        <mxCell id="1GqtW3D0vnaD6hVMnLZm-24" value="" style="endArrow=none;html=1;rounded=0;exitX=0;exitY=0.5;exitDx=0;exitDy=0;entryX=1;entryY=0.5;entryDx=0;entryDy=0;" parent="1" edge="1">
          <mxGeometry width="50" height="50" relative="1" as="geometry">
            <mxPoint x="440" y="759.5" as="sourcePoint" />
            <mxPoint x="320" y="759.5" as="targetPoint" />
          </mxGeometry>
        </mxCell>
        <mxCell id="1GqtW3D0vnaD6hVMnLZm-25" value="" style="endArrow=none;html=1;rounded=0;exitX=0;exitY=0.5;exitDx=0;exitDy=0;entryX=1;entryY=0.5;entryDx=0;entryDy=0;" parent="1" edge="1">
          <mxGeometry width="50" height="50" relative="1" as="geometry">
            <mxPoint x="640" y="759.5" as="sourcePoint" />
            <mxPoint x="520" y="759.5" as="targetPoint" />
          </mxGeometry>
        </mxCell>
        <mxCell id="1GqtW3D0vnaD6hVMnLZm-26" value="SPECIE" style="rounded=0;whiteSpace=wrap;html=1;" parent="1" vertex="1">
          <mxGeometry x="-320" y="720" width="160" height="80" as="geometry" />
        </mxCell>
        <mxCell id="1GqtW3D0vnaD6hVMnLZm-27" value="APPARTIENE" style="rhombus;whiteSpace=wrap;html=1;" parent="1" vertex="1">
          <mxGeometry x="-40" y="720" width="80" height="80" as="geometry" />
        </mxCell>
        <mxCell id="1GqtW3D0vnaD6hVMnLZm-28" value="" style="endArrow=none;html=1;rounded=0;exitX=0;exitY=0.5;exitDx=0;exitDy=0;entryX=1;entryY=0.5;entryDx=0;entryDy=0;" parent="1" edge="1">
          <mxGeometry width="50" height="50" relative="1" as="geometry">
            <mxPoint x="160" y="759.5" as="sourcePoint" />
            <mxPoint x="40" y="759.5" as="targetPoint" />
          </mxGeometry>
        </mxCell>
        <mxCell id="1GqtW3D0vnaD6hVMnLZm-29" value="" style="endArrow=none;html=1;rounded=0;exitX=0;exitY=0.5;exitDx=0;exitDy=0;entryX=1;entryY=0.5;entryDx=0;entryDy=0;" parent="1" edge="1">
          <mxGeometry width="50" height="50" relative="1" as="geometry">
            <mxPoint x="-40" y="759.5" as="sourcePoint" />
            <mxPoint x="-160" y="759.5" as="targetPoint" />
          </mxGeometry>
        </mxCell>
        <mxCell id="9_35HUgDkUIat2iefjqO-1" value="RILEVAZIONI" style="rounded=0;whiteSpace=wrap;html=1;" vertex="1" parent="1">
          <mxGeometry x="160" y="1040" width="160" height="80" as="geometry" />
        </mxCell>
        <mxCell id="9_35HUgDkUIat2iefjqO-2" value="VENGONO EFFETTUATE" style="rhombus;whiteSpace=wrap;html=1;" vertex="1" parent="1">
          <mxGeometry x="200" y="880" width="80" height="80" as="geometry" />
        </mxCell>
        <mxCell id="9_35HUgDkUIat2iefjqO-3" value="" style="endArrow=none;html=1;rounded=0;exitX=0.5;exitY=0;exitDx=0;exitDy=0;entryX=0.5;entryY=1;entryDx=0;entryDy=0;" edge="1" parent="1">
          <mxGeometry width="50" height="50" relative="1" as="geometry">
            <mxPoint x="239.5" y="880" as="sourcePoint" />
            <mxPoint x="239.5" y="800" as="targetPoint" />
          </mxGeometry>
        </mxCell>
        <mxCell id="9_35HUgDkUIat2iefjqO-4" value="" style="endArrow=none;html=1;rounded=0;exitX=0.5;exitY=0;exitDx=0;exitDy=0;entryX=0.5;entryY=1;entryDx=0;entryDy=0;" edge="1" parent="1">
          <mxGeometry width="50" height="50" relative="1" as="geometry">
            <mxPoint x="239.5" y="1040" as="sourcePoint" />
            <mxPoint x="239.5" y="960" as="targetPoint" />
          </mxGeometry>
        </mxCell>
        <mxCell id="9_35HUgDkUIat2iefjqO-5" value="INFORMAZIONI AMBIENTALI" style="rounded=0;whiteSpace=wrap;html=1;" vertex="1" parent="1">
          <mxGeometry x="640" y="1040" width="160" height="80" as="geometry" />
        </mxCell>
        <mxCell id="9_35HUgDkUIat2iefjqO-6" value="ACQUISISCONO" style="rhombus;whiteSpace=wrap;html=1;" vertex="1" parent="1">
          <mxGeometry x="440" y="1040" width="80" height="80" as="geometry" />
        </mxCell>
        <mxCell id="9_35HUgDkUIat2iefjqO-7" value="" style="endArrow=none;html=1;rounded=0;exitX=0;exitY=0.5;exitDx=0;exitDy=0;entryX=1;entryY=0.5;entryDx=0;entryDy=0;" edge="1" parent="1">
          <mxGeometry width="50" height="50" relative="1" as="geometry">
            <mxPoint x="640" y="1079.5" as="sourcePoint" />
            <mxPoint x="520" y="1079.5" as="targetPoint" />
          </mxGeometry>
        </mxCell>
        <mxCell id="9_35HUgDkUIat2iefjqO-8" value="" style="endArrow=none;html=1;rounded=0;exitX=0;exitY=0.5;exitDx=0;exitDy=0;entryX=1;entryY=0.5;entryDx=0;entryDy=0;" edge="1" parent="1">
          <mxGeometry width="50" height="50" relative="1" as="geometry">
            <mxPoint x="440" y="1079.5" as="sourcePoint" />
            <mxPoint x="320" y="1079.5" as="targetPoint" />
          </mxGeometry>
        </mxCell>
        <mxCell id="9_35HUgDkUIat2iefjqO-9" value="DISPOSITIVI" style="rounded=0;whiteSpace=wrap;html=1;" vertex="1" parent="1">
          <mxGeometry x="640" y="1360" width="160" height="80" as="geometry" />
        </mxCell>
        <mxCell id="9_35HUgDkUIat2iefjqO-10" value="FORNISCONO" style="rhombus;whiteSpace=wrap;html=1;" vertex="1" parent="1">
          <mxGeometry x="680" y="1200" width="80" height="80" as="geometry" />
        </mxCell>
        <mxCell id="9_35HUgDkUIat2iefjqO-13" value="" style="endArrow=none;html=1;rounded=0;exitX=0.5;exitY=0;exitDx=0;exitDy=0;entryX=0.5;entryY=1;entryDx=0;entryDy=0;" edge="1" parent="1">
          <mxGeometry width="50" height="50" relative="1" as="geometry">
            <mxPoint x="719.47" y="1200" as="sourcePoint" />
            <mxPoint x="719.47" y="1120" as="targetPoint" />
          </mxGeometry>
        </mxCell>
        <mxCell id="9_35HUgDkUIat2iefjqO-14" value="" style="endArrow=none;html=1;rounded=0;exitX=0.5;exitY=0;exitDx=0;exitDy=0;entryX=0.5;entryY=1;entryDx=0;entryDy=0;" edge="1" parent="1">
          <mxGeometry width="50" height="50" relative="1" as="geometry">
            <mxPoint x="719.47" y="1360" as="sourcePoint" />
            <mxPoint x="719.47" y="1280" as="targetPoint" />
          </mxGeometry>
        </mxCell>
      </root>
    </mxGraphModel>
  </diagram>
</mxfile>
